<?xml version="1.0" encoding="UTF-8" standalone="no"?>
<!DOCTYPE svg PUBLIC "-//W3C//DTD SVG 1.1//EN" "http://www.w3.org/Graphics/SVG/1.1/DTD/svg11.dtd">
<svg version="1.1" xmlns="http://www.w3.org/2000/svg" xmlns:xlink="http://www.w3.org/1999/xlink" preserveAspectRatio="xMidYMid meet" viewBox="0 0 640 640" width="640" height="640"><defs><path d="M260.76 34.65C260.76 128.72 260.76 187.51 260.76 211.03C260.76 242.94 234.9 268.81 202.99 268.81C190.12 268.81 157.95 268.81 106.47 268.81C106.47 174.73 106.47 115.94 106.47 92.42C106.47 60.51 132.34 34.65 164.24 34.65C177.11 34.65 209.29 34.65 260.76 34.65Z" id="cW5sbbHiP"></path><path d="M257.13 151.73L106.47 151.73L257.13 151.73Z" id="kBwfo61X5"></path><path d="M181.8 151.73L183.62 268.81L181.8 151.73Z" id="bbX0L1OTzi"></path><path d="M246.24 244.84L124.62 57.87L246.24 244.84Z" id="a4n4rO3hd"></path><path d="M70.39 156.84L84.39 207.34L97.89 228.84L103.39 244.84L116.89 231.34L120.89 219.84L167.39 224.84L179.39 222.84L192.39 217.84L199.89 210.34L272.89 207.34L304.39 207.34L282.89 135.84L202.89 151.23L176.89 137.84L151.89 127.34L151.89 116.84L158.39 88.34L161.39 82.34L148.89 80.34L138.39 83.84L127.39 121.84L117.89 125.34L89.89 144.84L70.39 156.84Z" id="a1YkM5iGV5"></path><path d="" id="a5CYp6oz4"></path><path d="" id="g60KB1I2VP"></path><path d="M140.53 87.72L145.35 85.41L150.43 86.86L153.28 89.7L131.04 171.73L116.51 183.81L110.49 191.17L140.53 87.72Z" id="i1UOB4sKGJ"></path><path d="" id="b3bD1QgxT"></path><path d="M98.77 155.51L105.71 157.51L110.57 164.14L111.4 191.04L111.21 196.3L107.11 201.99L101.96 198.97L101.04 192.51L95.75 180.06L91.97 166.78L91.15 153.34L115.74 132.78L122.67 127.19L129.97 126.97" id="e2o8NWjty"></path><path d="M109.8 200.02L110.25 203.21L109.23 209.44L103.9 211.97L100.31 208.42L98.65 202.42L95.55 195.86L90.02 185.48L87.55 179.6L87.6 174.17L91.97 166.78" id="c3llaWmK1n"></path><path d="M146.29 154.2L146.08 166.42L141 168.5L136.52 152.25" id="baiJ0L94n"></path><path d="M180.34 199.35L172.77 200.43L166.58 196.03L160.29 191.78L151.34 189.8L144.46 192.94L137.02 197.79L126.96 203.28L122.02 204.79L117.39 204.64L112.47 200.46L112.17 192.64L114.09 187.08L130.37 171.9L141 168.5" id="bae5GHQic"></path><path d="M267.89 143.47L211.57 155.49L198.24 155.49L164.12 139.47L141.71 131.27" id="iOtxFkhVc"></path><path d="" id="clpxPXsSL"></path><path d="M136.81 202.7L153.24 203.2L155.36 209.28L152.96 214.94L133.8 216.67L120 210.5" id="i1yk62ye6d"></path><path d="M154.39 196.58L159.81 198.62L161.89 203.75L157.19 210.03" id="b7wQybS1E"></path><path d="M275.95 200.81L197.61 203.62L192.73 208.17L185.52 213.82L169.37 216.9L160.03 210.58" id="cGH9aJKh8"></path><path d="M136.67 188.89L134.91 184.13L130.35 178.68" id="g2APMcp5"></path><path d="" id="d9XtirdOvp"></path><path d="M110.84 193.69L112.5 200.72L117.49 204.62L121.17 205.73L115.52 221.98L112.46 228.37L105.29 236.44L103.97 227.14L104.68 217.47L110.03 197.82L110.84 193.69Z" id="jEHs8jEr8"></path><path d="" id="b13jDOq7"></path><path d="M282.41 203.84C272.55 200.54 266.75 195.31 265.01 188.15C263.27 180.99 265.72 174.05 272.36 167.33" id="hmX01kdiz"></path><path d="M230.59 183.69C220.1 180.17 213.92 174.61 212.07 166.98C210.22 159.36 212.83 151.97 219.89 144.82" id="a4bVbnkYKt"></path><path d="M250.94 204.43C240.54 201.64 234.5 197 232.81 190.52C231.12 184.03 233.87 177.65 241.06 171.38" id="b2nV6vCK75"></path><path d="M265.85 189.43C251.49 184.62 243.04 177.01 240.51 166.58C237.98 156.15 241.54 146.04 251.21 136.26" id="bb6YbD0V9"></path><path d="" id="d2OUnADTbr"></path><path d="" id="k863cmteC"></path><path d="M111.71 175.57L123.52 169.2L122.15 157.69L110.36 164.27" id="bcoXjToUG"></path><path d="" id="aEmCgjsKC"></path><path d="M203.7 -31.65C186.1 -39.77 176.42 -50.64 174.66 -64.25C172.9 -77.87 178.85 -90.23 192.51 -101.33" id="b5j8LpIAs"></path></defs><g><g><g><g><g><use xlink:href="#cW5sbbHiP" opacity="1" fill-opacity="0" stroke="#e22741" stroke-width="16" stroke-opacity="1"></use></g></g><g><g><use xlink:href="#kBwfo61X5" opacity="1" fill-opacity="0" stroke="#e22741" stroke-width="16" stroke-opacity="1"></use></g></g><g><g><use xlink:href="#bbX0L1OTzi" opacity="1" fill-opacity="0" stroke="#e22741" stroke-width="16" stroke-opacity="1"></use></g></g></g><g><g><use xlink:href="#a4n4rO3hd" opacity="1" fill-opacity="0" stroke="#e22741" stroke-width="16" stroke-opacity="1"></use></g></g><g><use xlink:href="#a1YkM5iGV5" opacity="1" fill="#ffffff" fill-opacity="1"></use></g><g><g><use xlink:href="#a5CYp6oz4" opacity="1" fill-opacity="0" stroke="#e22741" stroke-width="3" stroke-opacity="1"></use></g></g><g><g><g><g><use xlink:href="#g60KB1I2VP" opacity="1" fill-opacity="0" stroke="#000000" stroke-width="4" stroke-opacity="1"></use></g></g><g><use xlink:href="#i1UOB4sKGJ" opacity="1" fill="#0e0e0e" fill-opacity="1"></use><g><use xlink:href="#i1UOB4sKGJ" opacity="1" fill-opacity="0" stroke="#000000" stroke-width="2" stroke-opacity="1"></use></g></g><g><g><use xlink:href="#b3bD1QgxT" opacity="1" fill-opacity="0" stroke="#000000" stroke-width="3" stroke-opacity="1"></use></g></g><g><g><use xlink:href="#e2o8NWjty" opacity="1" fill-opacity="0" stroke="#000000" stroke-width="3" stroke-opacity="1"></use></g></g><g><g><use xlink:href="#c3llaWmK1n" opacity="1" fill-opacity="0" stroke="#000000" stroke-width="3" stroke-opacity="1"></use></g></g><g><g><use xlink:href="#baiJ0L94n" opacity="1" fill-opacity="0" stroke="#000000" stroke-width="3" stroke-opacity="1"></use></g></g><g><g><use xlink:href="#bae5GHQic" opacity="1" fill-opacity="0" stroke="#000000" stroke-width="3" stroke-opacity="1"></use></g></g><g><g><use xlink:href="#iOtxFkhVc" opacity="1" fill-opacity="0" stroke="#000000" stroke-width="3" stroke-opacity="1"></use></g></g><g><g><use xlink:href="#clpxPXsSL" opacity="1" fill-opacity="0" stroke="#000000" stroke-width="3" stroke-opacity="1"></use></g></g><g><g><use xlink:href="#i1yk62ye6d" opacity="1" fill-opacity="0" stroke="#000000" stroke-width="3" stroke-opacity="1"></use></g></g><g><g><use xlink:href="#b7wQybS1E" opacity="1" fill-opacity="0" stroke="#000000" stroke-width="3" stroke-opacity="1"></use></g></g><g><g><use xlink:href="#cGH9aJKh8" opacity="1" fill-opacity="0" stroke="#000000" stroke-width="3" stroke-opacity="1"></use></g></g><g><g><use xlink:href="#g2APMcp5" opacity="1" fill-opacity="0" stroke="#000000" stroke-width="2" stroke-opacity="1"></use></g></g><g><g><use xlink:href="#d9XtirdOvp" opacity="1" fill-opacity="0" stroke="#000000" stroke-width="3" stroke-opacity="1"></use></g></g><g><use xlink:href="#jEHs8jEr8" opacity="1" fill="#000000" fill-opacity="1"></use><g><use xlink:href="#jEHs8jEr8" opacity="1" fill-opacity="0" stroke="#000000" stroke-width="2" stroke-opacity="1"></use></g></g><g><g><use xlink:href="#b13jDOq7" opacity="1" fill-opacity="0" stroke="#000000" stroke-width="2" stroke-opacity="1"></use></g></g><g><g><use xlink:href="#hmX01kdiz" opacity="1" fill-opacity="0" stroke="#000000" stroke-width="8" stroke-opacity="1"></use></g></g><g><g><use xlink:href="#a4bVbnkYKt" opacity="1" fill-opacity="0" stroke="#000000" stroke-width="8" stroke-opacity="1"></use></g></g><g><g><use xlink:href="#b2nV6vCK75" opacity="1" fill-opacity="0" stroke="#000000" stroke-width="8" stroke-opacity="1"></use></g></g><g><g><use xlink:href="#bb6YbD0V9" opacity="1" fill-opacity="0" stroke="#000000" stroke-width="8" stroke-opacity="1"></use></g></g></g><g><g><use xlink:href="#d2OUnADTbr" opacity="1" fill-opacity="0" stroke="#000000" stroke-width="1" stroke-opacity="1"></use></g></g><g><g><use xlink:href="#k863cmteC" opacity="1" fill-opacity="0" stroke="#000000" stroke-width="2" stroke-opacity="1"></use></g></g><g><g><use xlink:href="#bcoXjToUG" opacity="1" fill-opacity="0" stroke="#000000" stroke-width="3" stroke-opacity="1"></use></g></g><g><g><use xlink:href="#aEmCgjsKC" opacity="1" fill-opacity="0" stroke="#000000" stroke-width="3" stroke-opacity="1"></use></g></g><g><g><use xlink:href="#b5j8LpIAs" opacity="1" fill-opacity="0" stroke="#000000" stroke-width="8" stroke-opacity="1"></use></g></g></g></g></g></svg>